<svg width="68" height="68" viewBox="0 0 68 68" fill="none" xmlns="http://www.w3.org/2000/svg">
<g filter="url(#filter0_d_1_4890)">
<rect x="7" y="7" width="52" height="52" rx="26" fill="#F8F8F8"/>
<path d="M32.6324 19.2217C32.432 19.3246 32.3399 19.4546 31.7278 20.4621C31.4949 20.8467 31.2728 21.2042 31.2349 21.2421C31.1916 21.2854 30.6878 21.4371 30.1028 21.5779C29.5232 21.7134 28.987 21.8704 28.9112 21.9192C28.6945 22.06 28.5591 22.3254 28.5591 22.6071C28.5591 22.8996 28.597 22.9538 29.4745 23.9829C30.1678 24.8009 30.1245 24.6167 29.9999 26.0684C29.9241 26.9729 29.9457 27.195 30.1462 27.4171C30.287 27.5688 30.5578 27.6934 30.7582 27.6934C30.8341 27.6934 31.3703 27.4984 31.9499 27.26L33.0007 26.8267L34.0516 27.26C34.6312 27.4984 35.1674 27.6934 35.2432 27.6934C35.4437 27.6934 35.7145 27.5688 35.8553 27.4171C36.0557 27.195 36.0774 26.9729 36.0016 26.0684C35.877 24.6167 35.8337 24.8009 36.527 23.9829C37.4045 22.9538 37.4424 22.8996 37.4424 22.6071C37.4424 22.3254 37.307 22.06 37.0903 21.9192C37.0091 21.865 36.4782 21.7134 35.9095 21.5779C35.3353 21.4371 34.8424 21.3125 34.8099 21.2909C34.7828 21.2692 34.5012 20.8359 34.187 20.3267C33.8782 19.8067 33.5532 19.3463 33.4666 19.2813C33.2607 19.135 32.8599 19.1025 32.6324 19.2217Z" fill="#0F0F0F"/>
<path d="M23.2239 22.4283C22.9909 22.5746 22.9422 22.6396 22.3572 23.6037C22.0647 24.0804 21.8209 24.4812 21.8101 24.4867C21.8047 24.4975 21.2955 24.6275 20.6834 24.7792C20.0226 24.9362 19.5189 25.0879 19.443 25.1475C19.2697 25.2829 19.1343 25.5754 19.1343 25.8083C19.1343 26.0521 19.2534 26.2308 19.963 27.065C20.2989 27.455 20.5968 27.8125 20.6347 27.8558C20.6834 27.9208 20.678 28.1483 20.6184 28.8308C20.5155 30.1037 20.5155 30.2933 20.6618 30.51C20.8351 30.7592 21.1114 30.9 21.3822 30.8729C21.5014 30.8567 22.0484 30.6617 22.6009 30.4342L23.603 30.0171L24.643 30.4558C25.2172 30.6942 25.7534 30.8892 25.8347 30.8892C26.1109 30.8892 26.4305 30.6833 26.5551 30.4287C26.6689 30.1958 26.6689 30.1958 26.5768 29.0583L26.4901 27.9208L27.1834 27.0975C27.568 26.6479 27.9147 26.2146 27.958 26.1333C28.0718 25.9167 28.0555 25.5483 27.9309 25.3804C27.7197 25.0987 27.5464 25.0283 26.4739 24.7683C25.8889 24.6275 25.3959 24.4921 25.3743 24.4704C25.3526 24.4542 25.0818 24.0208 24.7676 23.5117C24.4534 23.0025 24.1339 22.5367 24.0526 22.4771C23.8468 22.32 23.4297 22.2983 23.2239 22.4283Z" fill="#0F0F0F"/>
<path d="M42.0684 22.4067C41.8572 22.4987 41.7543 22.6396 41.1314 23.6687C40.6709 24.4271 40.6114 24.4975 40.4326 24.5462C40.3189 24.5787 39.8314 24.6979 39.3439 24.8171C38.4555 25.0283 38.2768 25.1096 38.0709 25.3804C37.9464 25.5483 37.9301 25.9167 38.0439 26.1333C38.0872 26.2146 38.4339 26.6479 38.8184 27.0975L39.5118 27.9208L39.4197 29.0529L39.3276 30.185L39.4468 30.4287C39.5714 30.6887 39.8909 30.8892 40.1726 30.8892C40.2539 30.8892 40.7901 30.6942 41.3643 30.4558L42.4097 30.0171L43.4064 30.4342C43.9534 30.6617 44.5005 30.8567 44.6197 30.8729C44.8905 30.9 45.1668 30.7592 45.3401 30.51C45.4864 30.2933 45.4864 30.1037 45.3834 28.8308C45.3239 28.1483 45.3184 27.9208 45.3672 27.8558C45.4051 27.8125 45.7193 27.4387 46.0714 27.0271C46.418 26.6154 46.7484 26.1983 46.7918 26.1117C46.9814 25.7433 46.7484 25.1692 46.353 25.0392C46.2501 25.0067 45.7247 24.8712 45.1884 24.7412C44.6468 24.6112 44.1972 24.4975 44.1918 24.4867C44.1809 24.4758 43.9372 24.0804 43.6447 23.6037C43.3576 23.1271 43.0651 22.6775 43.0001 22.6125C42.7509 22.3362 42.4043 22.2604 42.0684 22.4067Z" fill="#0F0F0F"/>
<path d="M33.2617 30.6965C32.7329 30.8355 32.5532 31.2661 32.499 32.5476C32.4752 33.0256 32.4481 33.3103 32.3973 33.5137C32.3057 33.8901 32.0209 34.4664 31.7294 34.8528C31.3226 35.3953 30.5225 36.1343 29.8987 36.5479L29.7529 36.6428V41.1246V45.6097L30.1292 45.7691C31.1327 46.1928 32.4379 46.5353 33.8042 46.7319C34.8111 46.8777 35.462 46.9149 36.9909 46.9183C38.408 46.9217 38.4555 46.9183 38.7131 46.8438C39.7132 46.5556 40.4455 45.8572 40.7337 44.9215C40.7743 44.7927 41.0015 43.5791 41.2388 42.2264C41.649 39.8702 41.666 39.7482 41.666 39.3109C41.6626 38.9142 41.649 38.8125 41.571 38.5481C41.3066 37.6734 40.693 36.992 39.8692 36.6632C39.3912 36.4699 39.2827 36.4632 37.2452 36.4632H35.3874L35.506 36.1309C35.7806 35.3614 35.9027 34.6122 35.9027 33.6833C35.9027 32.9645 35.8654 32.7238 35.6959 32.3001C35.5467 31.9238 35.384 31.6797 35.0789 31.378C34.7772 31.0762 34.4958 30.9 34.1025 30.7643C33.8889 30.6898 33.4245 30.6525 33.2617 30.6965Z" fill="#0F0F0F"/>
<path d="M25.2071 35.9745C24.8376 36.0863 24.5122 36.4186 24.3969 36.8017C24.3291 37.0186 24.3291 37.1068 24.3359 41.4122L24.346 45.8025L24.4579 46.0296C24.5935 46.3076 24.8613 46.5619 25.136 46.6737C25.3258 46.7517 25.3529 46.7517 26.4988 46.7517C27.6447 46.7517 27.6718 46.7517 27.8616 46.6737C28.1362 46.5619 28.4041 46.3076 28.5397 46.0296L28.6516 45.8025L28.6617 41.4122C28.6685 37.1068 28.6685 37.0186 28.6007 36.8017C28.482 36.4084 28.16 36.0863 27.7769 35.9711C27.5328 35.8999 25.4411 35.8999 25.2071 35.9745Z" fill="#0F0F0F"/>
</g>
<defs>
<filter id="filter0_d_1_4890" x="0" y="0" width="68" height="68" filterUnits="userSpaceOnUse" color-interpolation-filters="sRGB">
<feFlood flood-opacity="0" result="BackgroundImageFix"/>
<feColorMatrix in="SourceAlpha" type="matrix" values="0 0 0 0 0 0 0 0 0 0 0 0 0 0 0 0 0 0 127 0" result="hardAlpha"/>
<feOffset dx="1" dy="1"/>
<feGaussianBlur stdDeviation="4"/>
<feComposite in2="hardAlpha" operator="out"/>
<feColorMatrix type="matrix" values="0 0 0 0 0 0 0 0 0 0 0 0 0 0 0 0 0 0 0.5 0"/>
<feBlend mode="normal" in2="BackgroundImageFix" result="effect1_dropShadow_1_4890"/>
<feBlend mode="normal" in="SourceGraphic" in2="effect1_dropShadow_1_4890" result="shape"/>
</filter>
</defs>
</svg>
